<svg width="678" height="918" viewBox="0 0 678 918" fill="none" xmlns="http://www.w3.org/2000/svg">
<path fill-rule="evenodd" clip-rule="evenodd" d="M447.498 218.91C454.776 233.24 464.121 243.806 470.373 245.783C486.048 250.74 518.148 202.131 519.867 176.135C521.586 150.139 473.186 108.096 446.375 144.978C437.07 157.779 435.227 173.24 437.441 188.179L379.173 248.285L422.438 275.32L447.498 218.91Z" fill="#915B3C"/>
<path fill-rule="evenodd" clip-rule="evenodd" d="M435.537 120.351C435.004 118.094 435.477 115.641 435.99 113.352C436.524 110.975 437.089 108.59 437.902 106.277C439.527 101.655 442.432 96.987 447.292 95.6464C451.189 94.5715 455.377 95.6143 458.743 97.3756C460.986 98.5488 462.997 100.222 464.627 102.178C466.245 104.119 467.166 106.549 468.623 108.61C471.428 104.288 475.033 100.184 479.581 97.839C483.957 95.5826 488.616 95.6936 492.822 97.5809C497.139 99.5181 500.484 102.901 502.84 107.049C503.43 108.088 503.997 109.145 504.485 110.244C504.893 111.164 505.269 112.2 505.977 112.913C506.766 113.709 507.559 113.461 508.582 113.162C509.781 112.811 511.011 112.61 512.238 112.518C517.661 112.109 523.24 114.033 526.522 118.361C528.035 120.355 529.164 122.841 529.407 125.448C529.623 127.771 528.919 130.802 529.89 132.933C530.302 133.838 531.183 133.531 532.108 133.475C533.497 133.391 534.885 133.208 536.274 133.15C538.225 133.068 540.142 133.292 541.955 133.915C544.609 134.828 547.735 136.956 546.501 140.407C546.037 141.704 545.084 142.804 544.285 143.903C543.188 145.413 542.088 146.918 540.966 148.408C540.114 149.54 539.26 150.613 538.3 151.647C537.789 152.198 536.682 153.13 536.559 153.925C536.405 154.919 538.232 155.441 538.877 155.882C540.151 156.753 541.32 157.803 542.18 159.116C542.846 160.135 543.433 161.387 543.158 162.708C542.989 163.519 542.501 164.156 541.963 164.763C541.316 165.491 541.204 166.022 540.793 166.908C543.089 167.14 550.374 169.022 549.173 172.646C548.774 173.853 547.453 174.674 546.459 175.281C544.714 176.345 542.81 177.125 540.925 177.826C536.993 179.287 532.882 180.097 528.794 180.433C531.154 183.927 529.33 188.745 524.905 189.53C522.952 189.876 521.115 189.078 519.585 188.021C519.024 187.634 518.331 186.893 517.815 186.71C517.537 186.611 517.146 186.655 516.793 186.466C514.474 185.229 512.299 183.125 510.433 181.273C507.109 177.973 504.588 173.847 503.34 169.181C503.019 167.984 502.643 167.174 501.602 166.539C500.69 165.982 499.646 165.675 498.726 165.132C496.293 163.696 494.865 161.176 493.127 159.007C491.114 161.926 488.191 164.7 485.272 166.635C482.893 168.213 480.599 167.225 478.422 166.133C471.458 162.642 465.289 157.827 458.698 153.722C464.172 159.146 470.389 163.856 475.648 169.5C478.025 172.05 474.642 172.612 472.587 173.183C469.203 174.124 466.007 175.912 463.178 178.132C462.599 172.119 458.76 165.996 453.096 164.193C446.839 162.201 438.48 167.123 438.653 174.524C438.753 178.821 441.636 182.257 443.829 185.446C439.955 186.42 437.135 189.67 433.824 191.824C432.191 192.886 430.154 193.968 428.269 193.516C427.572 193.348 426.885 192.942 426.137 193.128C425.209 193.358 424.668 193.925 423.636 193.975C419.516 194.177 415.126 191.22 414.208 187.023C413.379 183.229 416.308 179.874 419.723 178.686C417.46 175.498 412.909 170.373 417.104 166.366C410.747 161.781 401.365 140.965 415.177 138.668C412.017 132.856 411.745 123.305 418.599 119.319C423.876 116.249 430.775 117.713 435.537 120.351Z" fill="#191847"/>
<path fill-rule="evenodd" clip-rule="evenodd" d="M207.08 618.372C207.08 618.372 283.579 639.757 339.082 639.757C394.585 639.757 442.19 606.824 442.19 606.824C442.19 606.824 367.329 584.874 318.887 584.874C270.445 584.874 207.08 618.372 207.08 618.372Z" fill="#1F28CF"/>
<path fill-rule="evenodd" clip-rule="evenodd" d="M383.232 660.307C382.74 659.568 382.324 658.765 381.995 657.894C375.178 639.876 265.988 445.493 255.109 409.955H378.043C386.313 436.975 423.539 606.54 428.778 640.371C445.308 693.735 479.341 866.563 483.685 878.536C488.256 891.131 462.539 904.252 455.687 888.768C444.783 864.129 418.802 795.956 407.234 754.329C396.389 715.304 387.558 680.196 383.232 660.307Z" fill="#784931"/>
<path fill-rule="evenodd" clip-rule="evenodd" d="M282.655 684.04C232.735 696.65 50.1376 719.447 37.607 723.023C24.7169 726.701 13.4147 700.146 29.3476 694.394C54.6995 685.241 124.555 664.092 166.909 655.462C200.976 648.52 232.063 642.856 252.933 639.539C251.165 580.944 243.083 440.326 248.38 409.955H357.153C352.073 439.079 309.129 651.581 301.147 672.852C298.614 680.446 291.056 683.802 282.655 684.04Z" fill="#915B3C"/>
<path fill-rule="evenodd" clip-rule="evenodd" d="M34.4804 690.341C34.788 689.211 34.0983 688.042 32.9484 687.819C28.9015 687.036 20.1246 685.531 15.85 686.285C10.1869 687.283 -0.345005 691.083 -0.345005 691.083C0.813388 697.65 20.4763 809.105 20.4763 809.105C20.4763 809.105 36.5048 811.024 35.9695 800.898C35.4342 790.772 35.2554 784.044 35.2554 784.044L50.326 723.755C50.4627 723.208 50.1208 722.656 49.5704 722.535L39.2597 720.269C39.2597 720.269 33.3575 711.848 32.3454 706.111C31.5935 701.849 33.4673 694.062 34.4804 690.341Z" fill="#E4E4E4"/>
<path fill-rule="evenodd" clip-rule="evenodd" d="M451.545 883.372C450.486 882.874 449.216 883.349 448.797 884.442C447.323 888.289 444.316 896.668 444.316 901.006C444.316 906.754 446.232 917.78 446.232 917.78C452.903 917.78 566.137 917.78 566.137 917.78C566.137 917.78 570.811 902.337 560.741 901.105C550.671 899.874 544.01 898.882 544.01 898.882L487.221 873.578C486.707 873.349 486.105 873.59 485.89 874.11L481.866 883.866C481.866 883.866 472.544 888.213 466.716 888.213C462.385 888.213 455.035 885.015 451.545 883.372Z" fill="#E4E4E4"/>
<path fill-rule="evenodd" clip-rule="evenodd" d="M248.732 409.955C248.732 409.955 320.631 389.395 384.79 409.955C399.672 477.816 435.831 504.749 442.19 608.791C369.909 644.687 280.62 583.19 206.213 618.196C184.954 569.232 214.717 451.313 248.732 409.955Z" fill="#2B44FF"/>
<path fill-rule="evenodd" clip-rule="evenodd" d="M522.553 531.364L487.444 455.055L456.417 480.16L501.575 536.981C507.359 565.655 512.131 578.917 515.889 576.766C519.057 574.953 519.181 571.679 519.294 568.664C519.383 566.315 519.466 564.123 520.977 562.899C524.43 560.106 535.359 566.66 545.465 573.323C555.571 579.986 555.098 573.584 553.839 569.853C546.639 557.43 536.211 544.6 522.553 531.364ZM161.159 483.926C171.488 474.374 235.339 367.142 235.339 367.142L276.683 383.199C276.683 383.199 190.805 492.292 184.84 498.695C177.092 507.012 178.348 523.899 179.2 535.35C179.331 537.122 179.453 538.763 179.531 540.223C172.095 540.627 170.364 536.024 168.54 531.171C166.479 525.691 164.298 519.891 153.641 520.627C149.524 520.912 145.481 521.564 141.531 522.202C127.886 524.405 115.351 526.428 104.712 512.474C103.026 510.262 102.575 504.197 109.967 502.43C128.384 498.029 156.11 488.596 161.159 483.926Z" fill="#915B3C"/>
<path fill-rule="evenodd" clip-rule="evenodd" d="M419.714 238.546L437.976 242.184C439.185 327.205 464.982 413.939 515.367 502.385L433.917 548.551C393.34 434.579 382.001 328.709 419.714 238.546Z" fill="#191847"/>
<path fill-rule="evenodd" clip-rule="evenodd" d="M262.361 425.216L414.933 483.783C414.933 483.783 411.404 334.5 445.997 244.381L402.606 219.856C344.104 264.15 306.394 331.857 262.361 425.216Z" fill="#DDE3E9"/>
<path fill-rule="evenodd" clip-rule="evenodd" d="M167.908 463.989C256.861 282.13 401.595 219.468 401.595 219.468L401.619 219.515C401.63 219.506 401.64 219.497 401.65 219.489L404.654 220.642C409.975 222.898 420.823 227.617 420.823 227.617L419.744 263.67C399.195 322.475 350.418 505.868 350.418 505.868L250.55 467.533C247.62 475.675 244.852 484.01 242.273 492.535L167.908 463.989Z" fill="#2F3676"/>
<path fill-rule="evenodd" clip-rule="evenodd" d="M250.268 468.32C262.972 432.841 278.77 401.012 295.448 373.122C284.557 409.632 273.865 454.491 278.09 479L250.268 468.32Z" fill="black" fill-opacity="0.1"/>
<path fill-rule="evenodd" clip-rule="evenodd" d="M295.947 415.372L354.065 411.374L345.263 434.303L295.947 415.372Z" fill="white" fill-opacity="0.2"/>
</svg>
