<svg width="404" height="273" viewBox="0 0 404 273" fill="none" xmlns="http://www.w3.org/2000/svg">
<path fill-rule="evenodd" clip-rule="evenodd" d="M160.184 157.778C155.671 152.221 150.607 148.487 147.697 148.2C140.399 147.48 130.956 171.517 132.64 182.961C134.324 194.405 159.359 208.238 167.595 189.775C170.453 183.368 169.809 176.486 167.445 170.202L187.221 138.783L165.829 130.997L160.184 157.778Z" fill="#B28B67"/>
<path fill-rule="evenodd" clip-rule="evenodd" d="M132.183 177.931C131.944 179.248 131.961 180.813 131.951 182.138C131.94 183.846 132.259 185.506 132.689 187.118C133.497 190.151 134.728 193.073 136.306 195.701C139.187 200.499 143.694 204.303 149.035 205.545C151.732 206.171 154.595 206.105 157.322 205.253C159.786 204.483 162.429 202.991 164.982 203.744C167.761 204.564 169.384 207.852 171.027 210.116C172.88 212.669 175.053 214.828 177.753 216.343C182.276 218.88 187.382 218.91 192.123 216.197C197.169 213.309 201.96 208.125 201.655 201.754C201.598 200.57 201.36 199.502 200.826 198.495C200.337 197.571 199.478 196.466 199.565 195.306C199.658 194.074 201.121 192.973 201.852 192.096C202.899 190.84 203.879 189.479 204.299 187.852C204.988 185.181 204.253 182.124 203.147 179.801C202.021 177.436 200.222 175.661 198.083 174.366C196.654 173.501 195.142 172.76 193.536 172.305C192.738 172.079 191.975 172.044 191.16 171.941C190.368 171.84 190.029 171.498 189.554 170.873C187.344 167.971 184.503 166.126 181.072 165.189C178.177 164.398 174.691 163.896 171.701 164.975C168.381 166.173 167.366 169.121 166.825 172.47C166.304 171.926 164.618 171.094 165.214 172.721C165.451 173.366 166.163 173.853 166.591 174.337C167.089 174.901 167.561 175.568 167.843 176.294C168.98 179.229 165.364 183.043 162.645 182.898C158.604 182.683 159.65 177.277 157.534 175.01C156.318 173.707 154.378 174.177 152.874 174.831C150.859 175.706 149.152 177.217 147.574 178.812C146.273 180.125 145.015 181.479 143.704 182.779C143.091 183.386 141.141 185.023 141.44 186.07C138.647 185.638 136.137 183.507 134.407 181.28C133.692 180.359 133.219 179.459 133.099 178.25C133.073 177.991 133.081 177.251 132.801 177.119C132.28 176.872 132.243 177.6 132.183 177.931Z" fill="#191847"/>
<path fill-rule="evenodd" clip-rule="evenodd" d="M212.538 67.0605L210.913 -61.5586L211.26 -155.795L194.165 -162.017L163.901 49.3583L212.538 67.0605Z" fill="#1F28CF"/>
<path fill-rule="evenodd" clip-rule="evenodd" d="M223.109 70.9081C237.692 32.2871 256.364 -20.06 258.328 -22.0837C260.291 -24.1074 345.771 -52.6557 345.771 -52.6557L342.407 -70.8288C342.407 -70.8288 245.231 -48.7727 238.747 -43.4816C232.264 -38.1905 189.417 16.6192 165.39 49.9002L223.109 70.9081Z" fill="#2B44FF"/>
<path fill-rule="evenodd" clip-rule="evenodd" d="M298.617 62.6004C293.405 66.0882 253.832 109.581 253.832 109.581L239.218 101.052C239.218 101.052 286.157 56.854 289.229 54.4496C293.219 51.3262 293.846 43.8023 294.272 38.7004C294.337 37.9111 294.398 37.1798 294.466 36.5317C297.766 36.8712 298.206 39.0185 298.67 41.2823C299.194 43.8392 299.748 46.5447 304.489 46.962C306.32 47.1232 308.145 47.117 309.927 47.111C316.085 47.0904 321.741 47.0713 325.448 53.9564C326.035 55.0479 325.81 57.75 322.434 58.0137C314.023 58.6705 301.165 60.8954 298.617 62.6004ZM108.015 23.0892L128.769 54.2316L140.677 41.0093L116.856 19.1496C112.317 6.92927 109.296 1.42399 107.792 2.63374C106.523 3.65376 106.697 5.10367 106.856 6.4392C106.981 7.47957 107.097 8.45053 106.516 9.09477C105.191 10.566 99.9263 8.44456 95.0161 6.21748C90.106 3.99041 90.7589 6.7763 91.5725 8.33065C95.6043 13.297 101.085 18.2165 108.015 23.0892Z" fill="#B28B67"/>
<path fill-rule="evenodd" clip-rule="evenodd" d="M153.058 146.771L163.979 146.327C164.783 143.806 166.079 140.276 167.564 136.231C172.225 123.534 178.746 105.772 177.764 98.2677C174.361 72.2707 155.178 52.3923 133.814 30.2524C130.95 27.2848 128.047 24.2765 125.138 21.2074L112.671 33.2173C113.286 34.1064 113.891 34.9961 114.488 35.8864C113.222 35.8716 111.962 36.4206 111.109 37.4883C109.642 39.3265 109.94 42.0061 111.775 43.4734C115.505 46.4553 119.251 48.5034 122.992 49.5682C141.44 81.721 149.791 114.541 153.058 146.771Z" fill="#69A1AC"/>
<path fill-rule="evenodd" clip-rule="evenodd" d="M232.146 62.8749C232.146 62.8749 191.933 43.0203 166.202 38.8731C164.077 38.5306 161.043 47.1378 161.112 49.8152C162.185 91.5093 161.906 121.644 152.685 146.976C157.386 146.348 166.733 151.388 166.733 151.388C193.924 131.721 212.958 104.726 232.146 62.8749Z" fill="#191847"/>
<path fill-rule="evenodd" clip-rule="evenodd" d="M285.434 81.7706C235.037 143.431 173.085 156.116 173.085 156.116L171.702 155.613L168.286 154.369L162.982 152.439C169.641 137.703 172.29 113.697 175.363 85.8478C180.277 41.3091 186.275 -13.0573 211.498 -55.0459C223.168 -53.5311 235.249 -47.2681 248.328 -40.488C267.204 -30.7026 288.157 -19.84 312.953 -20.6192C305.53 -2.823 287.684 13.3716 269.917 29.493C258.656 39.7119 247.427 49.9014 238.905 60.4508C239.529 61.6887 239.537 63.2067 238.792 64.4966L237.368 66.9648C236.407 68.6295 234.492 69.3988 232.713 68.9804C231.929 70.2062 231.19 71.4381 230.499 72.6765C226.967 79.0048 225.241 85.9008 223.535 92.7193L223.535 92.7194C222.598 96.463 221.667 100.183 220.446 103.773C236.206 97.4912 257.342 84.2301 281.167 56.5814L296.145 67.6309C294.635 69.7838 293.108 71.8864 291.568 73.9397C293.119 75.7183 293.557 81.6401 291.612 81.8933C289.558 82.1608 287.497 82.1172 285.434 81.7706Z" fill="#89C5CC"/>
<path fill-rule="evenodd" clip-rule="evenodd" d="M169.739 153.891L179.459 141.448L174.08 127.51L185.446 122.233L177.859 80.2939L189.969 123.801L178.726 129.201L183.515 141.531L169.739 153.891Z" fill="black" fill-opacity="0.1"/>
<path fill-rule="evenodd" clip-rule="evenodd" d="M188.633 69.1063C186.671 68.3921 184.5 69.4059 183.785 71.3708C183.07 73.3357 184.081 75.5076 186.043 76.2219C188.006 76.9361 190.176 75.9223 190.892 73.9574C191.607 71.9925 190.596 69.8206 188.633 69.1063ZM191.638 47.0326C189.675 46.3184 187.505 47.3322 186.789 49.2971C186.074 51.262 187.085 53.4339 189.048 54.1481C191.01 54.8624 193.181 53.8485 193.896 51.8836C194.611 49.9187 193.6 47.7469 191.638 47.0326ZM193.347 28.5166C194.062 26.5517 196.233 25.5379 198.195 26.2521C200.157 26.9664 201.168 29.1383 200.453 31.1032C199.738 33.0681 197.568 34.0819 195.605 33.3677C193.643 32.6534 192.632 30.4815 193.347 28.5166Z" fill="black" fill-opacity="0.4"/>
</svg>
