<svg width="448" height="515" viewBox="0 0 448 515" fill="none" xmlns="http://www.w3.org/2000/svg">
<path fill-rule="evenodd" clip-rule="evenodd" d="M275.532 107.431C266.294 113.004 257.216 115.696 252.955 114.597C242.271 111.841 241.288 72.7231 249.555 57.3017C257.823 41.8803 300.323 35.1586 302.466 65.7134C303.209 76.318 298.76 85.7819 292.186 93.5043L303.973 148.487H269.733L275.532 107.431Z" fill="#B28B67"/>
<path fill-rule="evenodd" clip-rule="evenodd" d="M294.817 100.382C299.114 81.2489 311.357 68.2062 309.487 59.6543C307.617 51.1025 299.52 49.0181 299.52 49.0181C299.52 49.0181 295.332 32.0635 272.507 34.5952C249.682 37.1269 235.751 46.6132 241.767 67.4873C247.297 67.4873 253.974 65.4857 263.206 68.915C267.599 70.5472 269.491 79.038 269.491 79.038H273.663C273.663 79.038 279.736 68.9618 285.64 71.6325C291.543 74.3033 288.323 84.6071 288.323 84.6071L290.379 100.382H294.817Z" fill="#191847"/>
<path fill-rule="evenodd" clip-rule="evenodd" d="M406.387 326.958C415.223 326.958 422.387 334.121 422.387 342.958V488C422.387 496.837 415.223 504 406.387 504H228.667C219.83 504 212.667 496.837 212.667 488V342.958C212.667 334.121 219.83 326.958 228.667 326.958H406.387ZM378.44 366.935C380.649 366.935 382.44 368.726 382.44 370.935V460.023C382.44 462.232 380.649 464.023 378.44 464.023H256.613C254.404 464.023 252.613 462.232 252.613 460.023V370.935C252.613 368.726 254.404 366.935 256.613 366.935H378.44Z" fill="#C5CFD6"/>
<path fill-rule="evenodd" clip-rule="evenodd" d="M71.1999 496.861C99.3279 462.487 118.36 437.003 128.296 420.41C145.309 391.999 159.234 366.718 163.628 357.061C174.106 334.032 139.504 323.249 131.673 333.99C119.821 350.248 94.5072 401.405 55.7333 487.463L71.1999 496.861Z" fill="#B28B67"/>
<path fill-rule="evenodd" clip-rule="evenodd" d="M128.839 486.867L181.187 354.994C192.383 330.955 138.315 315.153 130.087 326.34C111.406 351.739 67.0056 451.935 61.44 459.503L128.839 486.867Z" fill="#2F3676"/>
<path fill-rule="evenodd" clip-rule="evenodd" d="M268.26 460.42C258.062 445.535 220.972 395.453 200.77 374.732C194.964 368.777 189.3 363.062 183.942 357.736C168.018 341.906 136.306 368.513 152.201 382.932C191.787 418.841 249.544 467.316 254.37 471.639C261.134 477.696 274.668 469.776 268.26 460.42Z" fill="#B28B67"/>
<path fill-rule="evenodd" clip-rule="evenodd" d="M262.196 453.539C262.875 452.584 264.215 452.361 265.118 453.106C267.416 455.001 271.389 458.462 272.73 460.787C274.66 464.132 277.248 471.192 277.248 471.192C273.371 473.432 207.562 511.456 207.562 511.456C207.562 511.456 199.661 504.038 205.1 499.94C210.539 495.842 214.077 493.028 214.077 493.028L238.387 459.508C238.718 459.051 239.36 458.959 239.807 459.302L245.152 463.422C245.152 463.422 252.03 462.821 255.417 460.864C257.72 459.533 260.593 455.795 262.196 453.539Z" fill="#E4E4E4"/>
<path fill-rule="evenodd" clip-rule="evenodd" d="M80.1912 489.748C81.2562 489.26 82.5289 489.737 82.9391 490.834C83.9826 493.625 85.6934 498.611 85.6934 501.295C85.6934 505.157 84.4076 512.567 84.4076 512.567C79.9308 512.567 3.94102 512.567 3.94102 512.567C3.94102 512.567 0.804459 502.189 7.56223 501.362C14.32 500.534 18.7898 499.868 18.7898 499.868L56.5904 483.003C57.1051 482.773 57.7078 483.014 57.9225 483.535L60.4938 489.778C60.4938 489.778 66.7498 492.699 70.661 492.699C73.3204 492.699 77.6756 490.9 80.1912 489.748Z" fill="#E4E4E4"/>
<path fill-rule="evenodd" clip-rule="evenodd" d="M200.023 361.581C200.023 361.581 265.287 350.94 287.452 347.029C329.571 339.597 341.854 316.914 334.592 267.423L256.987 267.423C241.583 271.875 128.254 322.491 128.254 322.491C114.661 329.244 117.193 349.156 119.677 355.716C119.829 356.117 188.424 473.607 188.424 473.607L251.908 433.134L199.904 366.35C199.904 366.35 197.844 362.198 200.023 361.581Z" fill="#5C63AB"/>
<path fill-rule="evenodd" clip-rule="evenodd" d="M148.924 282.176L194.432 248.733L204.492 273.62L159.427 292.321C146.682 307.304 139.555 313.55 138.047 311.059C136.775 308.959 137.769 306.993 138.685 305.182C139.398 303.771 140.064 302.455 139.574 301.242C138.454 298.473 129.893 298.764 121.78 299.389C113.668 300.013 116.032 296.4 117.988 294.617C126.269 289.656 136.581 285.509 148.924 282.176ZM387.579 341.104C383.398 332.616 369.161 249.887 369.161 249.887L339.347 250.004C339.347 250.004 366.96 339.211 369.161 344.67C372.02 351.76 367.163 362.062 363.87 369.048C363.361 370.129 362.889 371.13 362.489 372.028C367.058 374.074 369.253 371.601 371.567 368.993C374.18 366.048 376.946 362.932 383.456 365.963C385.971 367.134 388.351 368.519 390.676 369.872C398.709 374.544 406.087 378.836 416.125 372.638C417.716 371.655 419.46 367.955 415.247 365.064C404.75 357.861 389.623 345.254 387.579 341.104Z" fill="#B28B67"/>
<path fill-rule="evenodd" clip-rule="evenodd" d="M284.435 124.689L272.099 122.572C226.326 162.143 207.526 238.163 151.421 278.435L164.925 295.186C262.257 283.126 286.382 190.399 284.435 124.689Z" fill="#E87613"/>
<path fill-rule="evenodd" clip-rule="evenodd" d="M338.213 279.841C338.213 279.841 264.016 279.841 229.057 279.841C224.069 279.841 225.009 272.634 225.73 268.996C234.052 227.02 266.536 181.771 266.536 122.018L298.022 117.076C324.064 158.993 333.07 210.601 338.213 279.841Z" fill="#DDE3E9"/>
<path fill-rule="evenodd" clip-rule="evenodd" d="M350.487 309.824C355.393 321.616 360.204 331.905 364.737 339.807H388.147C390.665 258.309 359.834 195.598 334.031 157.786C339.76 157.376 344.931 154.977 348.2 149.074C359.708 128.293 355.552 116.851 343.253 113.091C336.491 111.022 330.13 112.434 322.517 114.124C316.286 115.507 309.217 117.075 300.401 117.076C300.398 117.076 300.395 117.076 300.392 117.076C299.538 117.076 298.761 117.134 298.055 117.243L287.607 117.84C287.607 117.84 245.187 261.717 264.209 309.824H350.487Z" fill="#FF9B21"/>
<path fill-rule="evenodd" clip-rule="evenodd" d="M350.487 309.824C344.05 294.353 337.45 276.295 331.098 257.646C328.734 278.184 324.796 298.811 318.24 309.824H350.487Z" fill="black" fill-opacity="0.1"/>
</svg>
