<svg width="387" height="502" viewBox="0 0 387 502" fill="none" xmlns="http://www.w3.org/2000/svg">
<path fill-rule="evenodd" clip-rule="evenodd" d="M199.867 89.297C208.22 93.9292 216.428 96.1672 220.281 95.2536C229.942 92.9626 230.83 60.4478 223.355 47.6294C215.88 34.8111 177.45 29.224 175.513 54.6212C174.841 63.4358 178.864 71.3023 184.808 77.7212L174.15 123.423H205.11L199.867 89.297Z" fill="#B28B67"/>
<path fill-rule="evenodd" clip-rule="evenodd" d="M211.126 33.6684C206.895 32.4816 200.754 32.0791 198.171 32.3514C199.64 29.1122 200.223 25.5034 199.748 21.9896C199.286 18.5753 197.628 15.6681 196.094 12.6216C195.387 11.2175 194.586 9.82092 193.391 8.74687C192.174 7.65264 190.634 6.93036 189.019 6.58577C187.366 6.23304 185.637 6.26241 183.982 6.58251C183.249 6.7241 182.592 7.03215 181.874 7.20339C181.139 7.37884 180.782 6.95533 180.248 6.52971C178.961 5.50416 177.075 4.9979 175.448 4.8167C173.621 4.61351 171.727 4.86693 169.985 5.41921C168.29 5.95686 166.661 6.82991 165.436 8.10179C164.89 8.66795 164.394 9.31236 164.073 10.0238C163.941 10.3158 163.919 10.4888 163.602 10.5957C163.309 10.6947 162.966 10.6976 162.664 10.7918C159.741 11.7026 157.242 13.7803 155.881 16.4479C155.088 18.0042 154.712 20.7443 154.815 23.8155C154.918 26.8867 157.932 34.9004 160.751 37.8233C163.268 40.4324 166.967 42.1541 170.537 42.9077C168.167 45.3994 166.59 48.5129 165.423 51.6795C164.157 55.1192 163.372 58.6932 163.083 62.3347C162.808 65.7946 162.782 69.4534 163.664 72.8395C164.489 76.0059 166.253 78.6036 169.197 80.2515C170.546 81.0064 171.997 81.5735 173.457 82.0918C174.895 82.6026 176.338 83.0992 177.845 83.3858C180.697 83.9281 183.982 83.835 186.179 81.7468C186.971 80.994 187.842 80.048 188.419 79.1284C188.627 78.7977 188.752 78.5814 188.5 78.2581C188.197 77.8709 187.709 77.5743 187.32 77.2714C185.106 75.5445 183.735 73.2392 183.39 70.4995C183.039 67.7197 183.851 64.1317 186.788 62.9186C190.415 61.421 194.408 63.1399 197.632 64.7423C199.001 60.2945 201.814 56.2898 206.224 54.2497C211.102 51.9926 216.7 51.7285 221.714 49.7919C223.02 49.2872 224.351 48.7144 225.313 47.6862C225.715 47.2564 226.186 46.699 226.347 46.1306C226.557 45.3841 226.034 44.7581 225.63 44.1761C223.486 41.09 215.356 34.8551 211.126 33.6684Z" fill="#E3D12E"/>
<path fill-rule="evenodd" clip-rule="evenodd" d="M165.12 218.364L212.374 368.165L234.6 480.638H256.908L234.639 218.364H165.12Z" fill="#D7A379"/>
<path fill-rule="evenodd" clip-rule="evenodd" d="M143.884 218.364C147.181 296.185 145.881 338.631 145.143 345.701C144.405 352.771 140.215 400.124 111.667 483.012H134.87C172.677 403.495 185.875 356.143 190.211 345.701C194.547 335.26 207.354 292.814 226.051 218.364H143.884Z" fill="#B28B67"/>
<path fill-rule="evenodd" clip-rule="evenodd" d="M164.105 218.364C176.397 269.911 197.656 352.193 227.882 465.21H260.51C262.92 349.209 252.668 272.861 234.915 218.364H164.105Z" fill="#69A1AC"/>
<path fill-rule="evenodd" clip-rule="evenodd" d="M143.719 218.364C146.948 296.185 138.579 372.853 112.656 466.422H147.469C185.345 388.092 212.493 311.802 231.046 218.364H143.719Z" fill="#89C5CC"/>
<path fill-rule="evenodd" clip-rule="evenodd" d="M108.36 498.44L109.558 480.666C109.601 480.037 110.207 479.604 110.823 479.735C122.031 482.111 137.805 477.078 137.805 477.078C153.722 487.45 176.846 492.066 184.152 493.323C185.366 493.531 186.125 494.759 185.763 495.935L183.893 502H137.805H110.921L108.36 498.44Z" fill="#E3D12E"/>
<path fill-rule="evenodd" clip-rule="evenodd" d="M229.62 498.44L230.818 480.666C230.861 480.037 231.467 479.604 232.083 479.735C243.291 482.111 259.065 477.078 259.065 477.078C274.982 487.45 298.106 492.066 305.412 493.323C306.626 493.531 307.385 494.759 307.023 495.935L305.153 502H259.065H232.181L229.62 498.44Z" fill="#E3D12E"/>
<path fill-rule="evenodd" clip-rule="evenodd" d="M275.219 125.429L230.443 147.989L246.978 164.316L279.513 136.911C296.652 132.566 304.49 129.387 303.027 127.374C301.793 125.678 299.803 125.737 297.97 125.791C296.542 125.833 295.21 125.873 294.404 125.077C292.564 123.26 296.075 116.908 299.686 111.011C303.298 105.115 299.436 105.628 297.228 106.476C290.001 110.977 282.665 117.294 275.219 125.429ZM320.238 157.085L300.57 167.025L301.69 185.183C301.69 185.183 314.428 176.724 325.388 173.913C339.361 170.329 345.015 167.592 351.843 159.587C355.496 155.305 358.597 146.696 355.12 143.892C353.786 142.816 348.815 145.357 343.744 147.95C339.879 149.926 335.955 151.932 333.538 152.389C330.284 153.006 330.665 149.125 330.969 146.025C331.187 143.799 331.367 141.976 330.135 142.503C324.378 142.594 320.238 157.085 320.238 157.085Z" fill="#D7A379"/>
<path fill-rule="evenodd" clip-rule="evenodd" d="M208.637 142.964C224.32 142.811 245.234 139.764 267.549 126.733L276.313 144.712C260.92 158.765 239.277 170.312 220.353 169.823C205.439 169.437 197.817 152.842 208.637 142.964Z" fill="#FF164E"/>
<path fill-rule="evenodd" clip-rule="evenodd" d="M166.339 266.141C151.429 264.353 137.729 262.71 129.61 264.18C120.501 236.964 128.065 219.828 135.047 204.01C139.256 194.476 143.253 185.42 143.262 174.925C143.287 144.36 169.963 97.3145 173.888 97.3145H175.015H206.12H209.682C211.282 116.228 218.112 136.707 224.986 157.317C226.591 162.13 228.198 166.95 229.742 171.759C255.755 177.191 313.516 158.282 313.516 158.282C313.516 158.282 328.098 186.035 326.998 197.853C293.377 214.01 264.562 221.213 240.822 221.689C241.576 234.648 239.861 246.979 234.102 258.246C226.384 273.343 194.243 269.488 166.339 266.141Z" fill="#FF164E"/>
</svg>
