<svg width="459" height="652" viewBox="0 0 459 652" fill="none" xmlns="http://www.w3.org/2000/svg">
<path fill-rule="evenodd" clip-rule="evenodd" d="M238.581 115.163C248.489 121.136 258.224 124.023 262.793 122.845C274.252 119.89 275.305 77.9569 266.439 61.4256C257.573 44.8944 211.994 37.6889 209.697 70.4427C208.9 81.8105 213.671 91.9555 220.721 100.234L208.08 159.174H244.8L238.581 115.163Z" fill="#B28B67"/>
<path fill-rule="evenodd" clip-rule="evenodd" d="M240.417 74.06C243.593 69.3291 246.643 65.7206 250.609 63.625C266.752 63.8802 268.642 60.9852 268.642 51.2278C266.035 49.3615 256.835 46.2188 246.532 45.3348C241.276 43.8302 235.05 44.1132 229.052 46.6229C221.648 48.7244 215.379 53.2501 212.61 61.7231C202.591 79.019 210.195 97.0235 220.443 103.174C223.171 99.941 225.551 96.8079 227.676 93.8087C225.969 92.1413 224.91 89.8141 224.91 87.2394C224.91 82.1678 229.02 78.0563 234.09 78.0563C234.463 78.0563 234.83 78.0786 235.191 78.1217C235.42 84.4627 236.358 105.916 238.825 113.368C241.732 122.153 258.698 124.31 264.615 124.31C269.726 124.31 269.552 119.469 269.427 115.999C269.409 115.499 269.392 115.028 269.392 114.604C269.392 113.718 268.24 113.72 266.938 113.722C265.247 113.726 263.304 113.73 263.304 111.789C263.304 109.674 266.226 108.051 268.841 106.599C270.473 105.693 271.984 104.854 272.592 104.002C274.51 101.317 275.157 97.6945 272.263 97.6945C270.681 97.6945 268.511 98.6066 265.9 99.704C261.959 101.361 257.013 103.439 251.572 103.439C242.582 103.439 240.443 74.4231 240.417 74.06Z" fill="#191847"/>
<path fill-rule="evenodd" clip-rule="evenodd" d="M195.84 286.207L251.31 480.929L291.782 624.451H321.3L278.293 286.207H195.84Z" fill="#191847"/>
<path fill-rule="evenodd" clip-rule="evenodd" d="M181.006 286.207C179.723 386.569 175.348 441.309 174 450.428C172.653 459.546 152.284 517.554 112.893 624.451H143.472C193.62 521.901 221.614 463.894 227.454 450.428C233.293 436.962 251.316 382.221 278.46 286.207H181.006Z" fill="#2F3676"/>
<path fill-rule="evenodd" clip-rule="evenodd" d="M110.16 652L111.69 619.859L143.82 619.859C166.673 635.93 203.49 645.878 203.49 645.878V652H145.35L125.46 648.939V652H110.16Z" fill="#191847"/>
<path fill-rule="evenodd" clip-rule="evenodd" d="M287.64 652L289.17 619.859L321.3 619.859C344.153 635.93 380.97 645.878 380.97 645.878V652H322.83L302.94 648.939V652H287.64Z" fill="#191847"/>
<path fill-rule="evenodd" clip-rule="evenodd" d="M77.0575 341.739C82.7634 333.353 115.771 244.172 115.771 244.172L142.87 248.109C142.87 248.109 99.2371 342.809 96.0858 348.274C91.9922 355.375 95.6131 367.036 98.0683 374.943C98.4482 376.166 98.8001 377.299 99.0913 378.312C93.9337 379.802 91.9716 376.849 89.9031 373.736C87.5667 370.219 85.0945 366.498 77.7287 368.744C74.8829 369.612 72.1488 370.726 69.4776 371.815C60.2508 375.575 51.7745 379.03 42.0389 370.952C40.4955 369.671 39.1953 365.483 44.1011 363.043C56.3232 356.964 74.268 345.839 77.0575 341.739ZM371.095 300.29L324.909 261.121L312.286 286.982L359.1 310.353C371.615 327.329 378.772 334.541 380.572 331.991C382.09 329.84 381.173 327.663 380.329 325.658C379.671 324.096 379.057 322.638 379.672 321.378C381.077 318.501 390.214 319.453 398.847 320.728C407.479 322.003 405.22 317.963 403.26 315.909C394.772 309.984 384.05 304.778 371.095 300.29Z" fill="#B28B67"/>
<path fill-rule="evenodd" clip-rule="evenodd" d="M229.033 133.663L245.825 128.108C268.603 185.029 302.573 240.102 359.331 286.62L345.296 310.843C295.414 281.449 248.194 258.616 229.033 214.509C222.602 199.706 228.509 151.363 229.033 133.663Z" fill="white"/>
<path fill-rule="evenodd" clip-rule="evenodd" d="M171.36 293.859C171.36 293.859 243.511 301.512 284.941 293.859C288.363 293.227 288.903 287.496 287.316 283.606C262.604 223.034 245.657 170.181 245.657 128.108C238.856 131.538 221.85 129.136 221.85 129.136C191.382 172.493 177.377 222.24 171.36 293.859Z" fill="#323337"/>
<path fill-rule="evenodd" clip-rule="evenodd" d="M213.119 125.502C213.905 124.972 214.32 124.709 214.32 124.709L214.276 125.502H226.973C227.611 129.256 228.546 143.169 229.908 163.456C234.861 237.177 245.467 395.067 268.042 455.491H112.28C115.566 386.795 140.885 304.644 167.113 234.889C147.759 254.151 125.156 286.441 106.889 340.192L77.7127 332.7C107.446 204.536 194.558 138.438 211.461 126.641C211.626 126.259 211.79 125.88 211.953 125.502H213.119Z" fill="white"/>
</svg>
